<svg width="156" height="24" viewBox="0 0 156 24" fill="none" xmlns="http://www.w3.org/2000/svg">
<path d="M57.3985 14.4313V19.3849H69.4027V23.67H52.4449V0.375732H69.4027V4.32648H57.3985V9.91831H68.0047V14.4313H57.3985Z" fill="black"/>
<path d="M77.365 11.21L81.4221 11.2252C83.7773 11.2252 85.8591 10.8149 85.8591 7.83669C85.8591 4.85843 83.7014 4.34179 81.3461 4.34179H77.3498L77.365 11.21ZM72.229 0.345459H82.7593C88.6094 0.345459 90.8279 4.03789 90.8279 7.83669C90.8279 11.6355 88.6094 15.4191 82.7593 15.4191H77.365V23.7005H72.229V0.345459Z" fill="black"/>
<path d="M3.51631 3.74902C3.51631 3.74902 2.3007 4.64554 0.933131 7.48704C0.933131 7.48704 -0.32807 10.3741 0.0822003 12.8661C0.0822003 12.8661 0.81157 18.3972 6.4186 19.5672C6.4186 19.5672 10.7796 20.5853 13.6363 18.3516C13.6363 18.3516 16.4474 16.589 17.192 12.9117C17.192 12.9117 17.815 10.4045 16.4474 8.12524C15.9612 7.3047 15.2166 6.60572 14.3353 6.22584C13.4388 5.84596 12.2991 5.75479 11.6002 6.52974C11.1595 7.03118 11.0835 8.03407 11.7217 8.42914C11.7977 8.47473 11.8737 8.52031 11.9496 8.5507C11.9496 8.5507 11.0227 7.71497 11.9193 6.86404C12.1472 6.6513 12.5726 6.56013 12.8766 6.57533C13.7123 6.59052 14.548 7.24392 14.8367 8.01887C15.3078 9.29527 15.3838 10.754 14.7456 12C14.2441 12.9877 13.378 13.6563 12.3903 14.1121C12.3903 14.1121 9.53361 15.814 5.82598 13.8082C5.82598 13.8082 3.07565 12.547 2.40706 8.76344C2.39187 8.79383 1.99679 6.33221 3.51631 3.74902Z" fill="#026BAA"/>
<path d="M11.9952 7.73029C12.208 7.54794 12.4511 7.45677 12.7246 7.48716C13.0437 7.53275 13.4236 7.79107 13.4996 8.12536C13.53 8.27731 13.5148 8.44446 13.4996 8.59641C13.302 9.75125 12.1776 10.511 11.0531 10.2831C10.8404 10.2375 10.6277 10.1767 10.4301 10.0855C7.89254 8.99149 8.45476 5.40542 9.76155 3.582C10.2174 2.9438 10.7644 2.56392 11.433 2.16884C11.433 2.16884 13.378 1.01401 17.4047 1.86494C17.1768 1.81936 16.8881 1.57623 16.6754 1.46987C15.9916 1.15077 15.2774 0.907644 14.5328 0.740497C12.3143 0.22386 9.86791 0.254251 7.72539 1.02921C7.0568 1.27233 6.40341 1.59143 5.82599 2.01689C4.80792 2.76146 4.01777 4.38734 3.94179 5.63335C3.94179 5.63335 3.94179 5.63335 3.94179 5.64854C2.83254 13.2461 12.8614 14.9024 14.2897 10.0248C15.0343 7.48716 12.2839 6.27155 11.8433 7.88224L11.9952 7.73029Z" fill="#026BAA"/>
<path d="M3.33401 20.2056C3.33401 20.2056 7.25437 22.6064 12.4967 21.254C12.4967 21.254 15.2926 20.6918 17.42 17.8959C17.42 17.8959 19.6688 15.1912 19.3194 11.2252C19.3194 11.2252 19.0762 7.63916 16.3867 5.90691C16.3867 5.90691 14.3353 4.55454 11.8433 5.64859C11.8433 5.64859 10.1111 6.49952 11.1291 8.29255C11.1291 8.29255 11.5394 8.99153 12.0864 9.00673C12.0864 9.00673 10.9468 9.24985 10.3238 7.73033C10.3238 7.73033 9.60963 5.75496 11.1291 4.14427C11.1291 4.14427 13.0893 1.74343 17.268 2.95904C20.9908 4.0379 23.3157 7.74553 23.3157 11.5443C23.3157 11.5443 23.6348 14.1579 22.1153 17.2425C22.1153 17.2425 21.1884 19.3395 19.0155 21.1173C19.0155 21.1173 17.2224 22.7888 13.9858 23.4877C13.9858 23.4877 11.1899 24.3995 7.11762 22.7888C7.08723 22.7584 4.62561 21.7707 3.33401 20.2056Z" fill="#026BAA"/>
<path d="M37.8574 11.2099V15.3886H43.9811C42.7958 17.5311 40.5166 18.9898 37.8878 18.9898C34.0434 18.9898 30.9284 15.8748 30.9284 12.0304C30.9284 8.18606 34.0434 5.07105 37.8878 5.07105C40.3494 5.07105 42.5223 6.34744 43.7531 8.29243H49.6033C48.0382 3.68828 43.039 0.375732 37.8878 0.375732C31.4146 0.375732 26.1723 5.60288 26.1723 12.0456C26.1723 18.4884 31.4146 23.7155 37.8878 23.7155C44.3609 23.7155 49.6185 18.4884 49.6185 12.0456C49.6185 11.7721 49.6033 11.4986 49.5881 11.2251L37.8574 11.2099Z" fill="black"/>
<path d="M91.0406 1.50018C91.0862 1.50018 91.1166 1.50018 91.1622 1.50018C91.1926 1.50018 91.2382 1.48498 91.2534 1.46979C91.2838 1.45459 91.299 1.4394 91.3141 1.40901C91.3293 1.37861 91.3445 1.34822 91.3445 1.30264C91.3445 1.25705 91.3293 1.22666 91.3141 1.21147C91.299 1.18108 91.2686 1.16588 91.2534 1.15069C91.223 1.13549 91.1926 1.13549 91.1622 1.1203C91.1318 1.1203 91.1014 1.1203 91.071 1.1203H90.8127V1.50018H91.0406ZM90.8127 2.22955H90.6V0.922759H91.1014C91.2534 0.922759 91.3749 0.95315 91.4509 1.01393C91.5269 1.07471 91.5725 1.16588 91.5725 1.30264C91.5725 1.4242 91.5421 1.50018 91.4813 1.56096C91.4205 1.62174 91.3293 1.65213 91.2382 1.65213L91.6029 2.22955H91.3597L91.0254 1.66732H90.8279V2.22955H90.8127ZM91.9372 1.56096C91.9372 1.4242 91.9068 1.28744 91.8612 1.16588C91.8156 1.04432 91.7548 0.937955 91.6636 0.861979C91.5877 0.770807 91.4813 0.710027 91.3749 0.664441C91.2686 0.618855 91.147 0.588465 91.0254 0.588465C90.9039 0.588465 90.7823 0.618855 90.6608 0.664441C90.5544 0.710027 90.448 0.786003 90.3721 0.861979C90.2961 0.95315 90.2201 1.04432 90.1745 1.16588C90.1289 1.28744 90.0985 1.4242 90.0985 1.56096C90.0985 1.69771 90.1137 1.81928 90.1593 1.94084C90.2049 2.0624 90.2657 2.16876 90.3417 2.24474C90.4176 2.33591 90.5088 2.39669 90.6304 2.45747C90.7367 2.50306 90.8735 2.53345 91.0102 2.53345C91.1318 2.53345 91.2534 2.50306 91.3597 2.45747C91.4661 2.41189 91.5573 2.33591 91.6484 2.25994C91.7244 2.16876 91.8004 2.07759 91.846 1.95603C91.922 1.83447 91.9372 1.71291 91.9372 1.56096ZM92.1955 1.56096C92.1955 1.7433 92.1651 1.89525 92.1043 2.0472C92.0435 2.19916 91.9523 2.32072 91.846 2.42708C91.7396 2.53345 91.6181 2.60943 91.4813 2.67021C91.3445 2.73099 91.1926 2.76138 91.0406 2.76138C90.8735 2.76138 90.7215 2.73099 90.5696 2.67021C90.4328 2.60943 90.3113 2.53345 90.2049 2.42708C90.0985 2.32072 90.0226 2.19916 89.9618 2.0472C89.901 1.91045 89.8706 1.7433 89.8706 1.57615C89.8706 1.39381 89.901 1.24186 89.9618 1.08991C90.0226 0.937955 90.1137 0.816393 90.2201 0.710027C90.3265 0.60366 90.448 0.527684 90.5848 0.466904C90.7215 0.406123 90.8735 0.375732 91.0254 0.375732C91.1774 0.375732 91.3293 0.406123 91.4661 0.466904C91.6029 0.527684 91.7244 0.60366 91.8308 0.710027C91.9372 0.816393 92.0283 0.937955 92.0891 1.08991C92.1651 1.22666 92.1955 1.37861 92.1955 1.56096Z" fill="black"/>
<path d="M95.3257 0.345459H95.0066V23.7005H95.3257V0.345459Z" fill="black"/>
<path d="M97.9089 0.360596H99.1093V6.14996H97.9089V0.360596Z" fill="black"/>
<path d="M104.914 6.13477H103.698L101.343 2.03207V6.13477H100.219V0.360596H101.48L103.789 4.40252V0.360596H104.914V6.13477Z" fill="black"/>
<path d="M110.232 0.360596V1.37867H108.5V6.13477H107.284V1.37867H105.552V0.360596H110.232Z" fill="black"/>
<path d="M114.973 3.61237H112.162V5.10149H115.368V6.13477H110.977V0.360596H115.216V1.37867H112.162V2.60948H114.973V3.61237Z" fill="black"/>
<path d="M116.31 0.360596H117.526V5.10149H120.398V6.13477H116.325V0.360596H116.31Z" fill="black"/>
<path d="M121.218 0.360596H122.434V5.10149H125.306V6.13477H121.233L121.218 0.360596Z" fill="black"/>
<path d="M126.035 0.360596H127.236V6.14996H126.035V0.360596Z" fill="black"/>
<path d="M131.916 5.99786C131.597 6.1954 131.202 6.28657 130.746 6.28657C129.986 6.28657 129.348 6.02825 128.862 5.49642C128.345 4.96459 128.102 4.23522 128.102 3.30831C128.102 2.36621 128.36 1.62165 128.877 1.05943C129.393 0.497205 130.077 0.208496 130.928 0.208496C131.657 0.208496 132.25 0.390838 132.706 0.770718C133.147 1.1506 133.405 1.60645 133.466 2.16868H132.28C132.189 1.7736 131.961 1.50009 131.612 1.33294C131.414 1.24177 131.186 1.19618 130.943 1.19618C130.472 1.19618 130.092 1.37853 129.788 1.72802C129.485 2.0775 129.333 2.60934 129.333 3.30831C129.333 4.02249 129.5 4.52393 129.819 4.81264C130.138 5.10135 130.518 5.2533 130.928 5.2533C131.338 5.2533 131.673 5.13174 131.931 4.90381C132.189 4.67588 132.356 4.35678 132.417 3.9769H131.08V3.0348H133.496V6.13462H132.691L132.569 5.40525C132.311 5.69396 132.098 5.8915 131.916 5.99786Z" fill="black"/>
<path d="M138.647 3.61237H135.836V5.10149H139.042V6.13477H134.651V0.360596H138.89V1.37867H135.836V2.60948H138.647V3.61237Z" fill="black"/>
<path d="M144.649 6.13477H143.434L141.078 2.03207V6.13477H139.954V0.360596H141.215L143.525 4.40252V0.360596H144.649V6.13477Z" fill="black"/>
<path d="M149.861 5.70928C149.436 6.10436 148.874 6.30189 148.205 6.30189C147.369 6.30189 146.716 6.02838 146.245 5.49655C145.774 4.96472 145.531 4.22015 145.531 3.29325C145.531 2.29036 145.804 1.50021 146.336 0.953187C146.807 0.482137 147.4 0.239014 148.129 0.239014C149.101 0.239014 149.816 0.558113 150.271 1.19631C150.515 1.561 150.651 1.91048 150.667 2.27517H149.451C149.375 2.00166 149.269 1.78892 149.147 1.65217C148.934 1.39385 148.6 1.27229 148.175 1.27229C147.734 1.27229 147.384 1.45463 147.141 1.80412C146.883 2.15361 146.761 2.65505 146.761 3.30844C146.761 3.96183 146.898 4.44808 147.156 4.76718C147.43 5.08628 147.764 5.25343 148.175 5.25343C148.6 5.25343 148.919 5.11667 149.147 4.84316C149.269 4.6912 149.375 4.46328 149.451 4.17457H150.651C150.56 4.79757 150.287 5.31421 149.861 5.70928Z" fill="black"/>
<path d="M155.605 3.61237H152.794V5.10149H156V6.13477H151.624V0.360596H155.863V1.37867H152.809V2.60948H155.62V3.61237H155.605Z" fill="black"/>
<path d="M100.492 14.887H98V9.09766H100.492C100.857 9.09766 101.145 9.14324 101.389 9.21922C101.799 9.35597 102.118 9.5991 102.376 9.94859C102.574 10.2373 102.71 10.5412 102.786 10.8755C102.862 11.2098 102.893 11.5289 102.893 11.8328C102.893 12.6077 102.741 13.2611 102.437 13.793C102.012 14.5223 101.358 14.887 100.492 14.887ZM101.389 10.5716C101.206 10.2525 100.841 10.1005 100.279 10.1005H99.17V13.8689H100.279C100.857 13.8689 101.252 13.5802 101.48 13.018C101.601 12.7141 101.662 12.3342 101.662 11.9088C101.662 11.3465 101.571 10.8907 101.389 10.5716Z" fill="black"/>
<path d="M106.266 12.6229H105.02V14.887H103.835V9.09766H106.677C107.087 9.11285 107.391 9.15844 107.619 9.24961C107.831 9.34078 108.029 9.47754 108.181 9.65988C108.302 9.81183 108.409 9.96378 108.485 10.1461C108.561 10.3285 108.591 10.526 108.591 10.7539C108.591 11.0274 108.515 11.301 108.378 11.5593C108.242 11.8176 108.014 12.0151 107.695 12.1215C107.968 12.2279 108.15 12.3798 108.257 12.5774C108.363 12.7749 108.424 13.0788 108.424 13.4891V13.8841C108.424 14.1425 108.439 14.3248 108.454 14.416C108.485 14.5679 108.561 14.6743 108.667 14.7503V14.9022H107.33C107.3 14.7807 107.269 14.6743 107.254 14.5983C107.224 14.4312 107.208 14.264 107.208 14.0969L107.193 13.565C107.193 13.2004 107.117 12.9572 106.996 12.8205C106.859 12.6837 106.616 12.6229 106.266 12.6229ZM106.996 11.5593C107.239 11.4529 107.36 11.225 107.36 10.9059C107.36 10.5564 107.239 10.3133 107.011 10.2069C106.874 10.1461 106.677 10.1005 106.418 10.1005H105.02V11.6504H106.388C106.646 11.6656 106.859 11.6353 106.996 11.5593Z" fill="black"/>
<path d="M109.518 9.09766H110.718V14.887H109.518V9.09766Z" fill="black"/>
<path d="M111.417 9.09766H112.709L113.97 13.4891L115.231 9.09766H116.493L114.517 14.887H113.378L111.417 9.09766Z" fill="black"/>
<path d="M121.233 12.3646H118.422V13.8537H121.629V14.887H117.237V9.09766H121.477V10.1157H118.422V11.3465H121.233V12.3646Z" fill="black"/>
<path d="M124.668 14.0514C124.956 14.0514 125.184 14.021 125.367 13.9602C125.701 13.8387 125.868 13.6107 125.868 13.2916C125.868 13.0941 125.777 12.9573 125.61 12.851C125.442 12.7446 125.184 12.6534 124.819 12.5775L124.212 12.4407C123.604 12.3039 123.194 12.152 122.966 12C122.571 11.7265 122.388 11.3163 122.388 10.754C122.388 10.2374 122.571 9.81193 122.95 9.46244C123.33 9.11295 123.877 8.9458 124.607 8.9458C125.215 8.9458 125.731 9.11295 126.172 9.43205C126.613 9.75115 126.825 10.2222 126.856 10.8452H125.701C125.686 10.4957 125.534 10.2526 125.245 10.1006C125.063 10.0095 124.819 9.94868 124.546 9.94868C124.242 9.94868 123.984 10.0095 123.801 10.131C123.619 10.2526 123.528 10.4349 123.528 10.6629C123.528 10.8756 123.619 11.0275 123.801 11.1187C123.923 11.1795 124.166 11.2707 124.561 11.3618L125.564 11.605C126.005 11.7113 126.324 11.8481 126.552 12.0304C126.901 12.3039 127.068 12.699 127.068 13.2156C127.068 13.7475 126.871 14.1881 126.461 14.5376C126.05 14.8871 125.488 15.0543 124.744 15.0543C123.984 15.0543 123.391 14.8871 122.966 14.5376C122.54 14.1881 122.312 13.7171 122.312 13.1245H123.467C123.498 13.3828 123.573 13.5803 123.68 13.7171C123.847 13.9298 124.181 14.0514 124.668 14.0514Z" fill="black"/>
<path d="M97.9089 17.8501H99.1093V23.6395H97.9089V17.8501Z" fill="black"/>
<path d="M104.914 23.6395H103.698L101.343 19.5368V23.6395H100.219V17.8501H101.48L103.789 21.892V17.8501H104.914V23.6395Z" fill="black"/>
<path d="M110.718 23.6395H109.503L107.148 19.5368V23.6395H106.023V17.8501H107.284L109.594 21.892V17.8501H110.718V23.6395Z" fill="black"/>
<path d="M114.396 23.7916C113.575 23.7916 112.937 23.5636 112.496 23.123C111.904 22.576 111.615 21.7706 111.615 20.7373C111.615 19.6737 111.904 18.8835 112.496 18.3517C112.937 17.8958 113.56 17.6831 114.396 17.6831C115.216 17.6831 115.854 17.911 116.295 18.3517C116.872 18.8835 117.176 19.6737 117.176 20.7373C117.176 21.7706 116.888 22.576 116.295 23.123C115.854 23.5636 115.231 23.7916 114.396 23.7916ZM115.535 22.2417C115.809 21.8922 115.961 21.3907 115.961 20.7373C115.961 20.0839 115.824 19.5825 115.535 19.233C115.247 18.8835 114.867 18.7012 114.396 18.7012C113.909 18.7012 113.53 18.8835 113.256 19.233C112.967 19.5825 112.831 20.0839 112.831 20.7373C112.831 21.3907 112.967 21.8922 113.256 22.2417C113.545 22.5912 113.925 22.7735 114.396 22.7735C114.882 22.7735 115.262 22.5912 115.535 22.2417Z" fill="black"/>
<path d="M117.663 17.8501H118.954L120.215 22.2415L121.477 17.8501H122.738L120.762 23.6395H119.623L117.663 17.8501Z" fill="black"/>
<path d="M126.248 22.4391H124.121L123.725 23.6243H122.449L124.516 17.835H125.883L127.935 23.6243H126.628L126.248 22.4391ZM125.914 21.4514L125.184 19.1721L124.44 21.4514H125.914Z" fill="black"/>
<path d="M132.28 17.8501V18.8682H130.548V23.6243H129.333V18.8682H127.6V17.8501H132.28Z" fill="black"/>
<path d="M132.888 17.8501H134.089V23.6395H132.888V17.8501Z" fill="black"/>
<path d="M137.781 23.7916C136.96 23.7916 136.322 23.5636 135.882 23.123C135.289 22.576 135 21.7706 135 20.7373C135 19.6737 135.289 18.8835 135.882 18.3517C136.322 17.8958 136.945 17.6831 137.781 17.6831C138.617 17.6831 139.24 17.911 139.68 18.3517C140.258 18.8835 140.562 19.6737 140.562 20.7373C140.562 21.7706 140.273 22.576 139.68 23.123C139.24 23.5636 138.602 23.7916 137.781 23.7916ZM138.921 22.2417C139.194 21.8922 139.346 21.3907 139.346 20.7373C139.346 20.0839 139.209 19.5825 138.921 19.233C138.632 18.8835 138.252 18.7012 137.781 18.7012C137.295 18.7012 136.915 18.8835 136.641 19.233C136.353 19.5825 136.216 20.0839 136.216 20.7373C136.216 21.3907 136.353 21.8922 136.641 22.2417C136.93 22.5912 137.31 22.7735 137.781 22.7735C138.252 22.7735 138.632 22.5912 138.921 22.2417Z" fill="black"/>
<path d="M146.154 23.6395H144.938L142.583 19.5368V23.6395H141.443V17.8501H142.704L145.014 21.892V17.8501H146.138L146.154 23.6395Z" fill="black"/>
</svg>
